# AST/ASF file generated using VICON BodyLanguage
# -----------------------------------------------
:version 1.10
:name VICON
:units
  mass 1.0
  length 0.45
  angle deg
:documentation
   .ast/.asf automatically generated from VICON data using
   VICON BodyBuilder and BodyLanguage model FoxedUp or BRILLIANT.MOD
:root
   order TX TY TZ RX RY RZ
   axis XYZ
   position 0 0 0  
   orientation 0 0 0 
:bonedata
  begin
     id 1 
     name lhipjoint
     direction 0.567725 -0.736092 0.368589 
     length 2.42353 
     axis 0 0 0  XYZ
  end
  begin
     id 2 
     name lfemur
     direction 0.34202 -0.939693 0  
     length 7.24894  
     axis 0 0 20  XYZ
    dof rx ry rz
    limits (-160.0 20.0)
           (-70.0 70.0)
           (-60.0 70.0)
  end
  begin
     id 3 
     name ltibia
     direction 0.34202 -0.939693 0   
     length 7.6997   
     axis 0 0 20   XYZ
    dof rx
    limits (-10.0 170.0)
  end
  begin
     id 4 
     name lfoot
     direction 0.100767 -0.276854 0.955614   
     length 2.37556   
     axis -90 7.62852e-016 20   XYZ
    dof rx rz
    limits (-45.0 90.0)
           (-70.0 20.0)
  end
  begin
     id 5 
     name ltoes
     direction 1.53592e-011 -4.21894e-011 1   
     length 1.18363   
     axis -90 7.62852e-016 20   XYZ
    dof rx
    limits (-90.0 20.0)
  end
  begin
     id 6 
     name rhipjoint
     direction -0.556459 -0.742938 0.372017   
     length 2.4012  
     axis 0 0 0  XYZ 
  end
  begin
     id 7 
     name rfemur
     direction -0.34202 -0.939693 0   
     length 7.5119   
     axis 0 0 -20   XYZ
    dof rx ry rz
    limits (-160.0 20.0)
           (-70.0 70.0)
           (-70.0 60.0)
  end
  begin
     id 8 
     name rtibia
     direction -0.34202 -0.939693 0   
     length 7.50155   
     axis 0 0 -20   XYZ
    dof rx
    limits (-10.0 170.0)
 end
 begin
     id 9 
     name rfoot
     direction -0.118427 -0.325376 0.938139   
     length 2.32487  
     axis -90 -7.62852e-016 -20   XYZ
    dof rx rz
    limits (-45.0 90.0)
           (-20.0 70.0)
  end
  begin
     id 10 
     name rtoes
     direction -1.53525e-011 -4.21868e-011 1   
     length 1.15233   
     axis -90 -7.62852e-016 -20   XYZ
    dof rx
    limits (-90.0 20.0)
  end
  begin
     id 11 
     name lowerback
     direction 0.0287568 0.999577 -0.00434502   
     length 2.15243   
     axis 0 0 0   XYZ
    dof rx ry rz
    limits (-20.0 45.0)
           (-30.0 30.0)
           (-30.0 30.0)
  end
  begin
     id 12 
     name upperback
     direction 0.0294009 0.99956 0.00404628   
     length 2.15427   
     axis 0 0 0   XYZ
    dof rx ry rz
    limits (-20.0 45.0)
           (-30.0 30.0)
           (-30.0 30.0)
  end
  begin
     id 13 
     name thorax
     direction 0.0151014 0.999868 0.0059419   
     length 2.14898   
     axis 0 0 0   XYZ
    dof rx ry rz
    limits (-20.0 45.0)
           (-30.0 30.0)
           (-30.0 30.0)
  end
  begin
     id 14 
     name lowerneck
     direction -0.0249197 0.989906 0.139515   
     length 1.6861   
     axis 0 0 0   XYZ
    dof rx ry rz
    limits (-20.0 45.0)
           (-30.0 30.0)
           (-30.0 30.0)
  end
  begin
     id 15 
     name upperneck
     direction 0.0438463 0.988795 -0.142693   
     length 1.71276   
     axis 0 0 0   XYZ
    dof rx ry rz
    limits (-20.0 45.0)
           (-30.0 30.0)
           (-30.0 30.0)
  end
  begin
     id 16
     name head
     direction 0.0148499 0.997845 -0.0639186  
     length 1.7209  
     axis 0 0 0   XYZ
    dof rx ry rz
    limits (-20.0 45.0)
           (-30.0 30.0)
           (-30.0 30.0)
  end
  begin
     id 17 
     name lclavicle
     direction 0.940298 0.323464 -0.105876  
     length 3.9048  
     axis 0 0 0   XYZ
    dof ry rz
    limits (-20.0 10.0)
           (0.0 20.0)
  end
  begin
     id 18 
     name lhumerus
     direction 1 -4.48954e-011 -4.9675e-028   
     length 4.6851   
     axis 180 -30 -90   XYZ
    dof rx ry rz
    limits (-60.0 90.0)
           (-90.0 90.0)
           (-90.0 90.0)
  end
  begin
     id 19
     name lradius
     direction 1 -4.48992e-011 -1.03359e-026   
     length 3.39626   
     axis 180 -30 -90   XYZ
    dof rx
    limits (-10.0 170.0)
  end
  begin
     id 20
     name lwrist
     direction 1 -4.48906e-011 -1.67336e-026   
     length 1.69813   
     axis 9.90442e-015 90 90   XYZ
    dof ry
    limits (-180.0 0.0)
 end
  begin
     id 21 
     name lhand
     direction 1 -4.49006e-011 -3.34673e-026   
     length 0.486078   
     axis 2.1355e-014 90 90   XYZ
    dof rx rz
    limits (-90.0 90.0)
           (-45.0 45.0)
  end
  begin
     id 22 
     name lfingers
     direction 1 -4.48992e-011 -6.69345e-026   
     length 0.391889   
     axis 4.27099e-014 90 90   XYZ
    dof rx
    limits (0.0 90.0)
  end
  begin
     id 23
     name lthumb
     direction 0.707107 -6.34926e-011 0.707107   
     length 0.562676   
     axis -90 45 2.85299e-015   XYZ
    dof rx rz
    limits (-45.0 45.0)
           (-45.0 45.0)
  end
  begin
     id 24 
     name rclavicle
     direction -0.882459 0.414895 -0.221648   
     length 3.44646  
     axis 0 0 0   XYZ 
    dof ry rz
    limits (-10.0 20.0)
           (-20.0 0.0)
  end
  begin
     id 25 
     name rhumerus
     direction -1 -4.48962e-011 -2.37984e-027  
     length 5.55576   
     axis 180 30 90   XYZ
    dof rx ry rz
    limits (-90.0 60.0)
           (-90.0 90.0)
           (-90.0 90.0)
  end
  begin
     id 26 
     name rradius
     direction -1 -4.48982e-011 -6.86791e-027   
     length 3.32774   
     axis 180 30 90   XYZ
    dof rx
    limits (-10.0 170.0)
  end
  begin
     id 27 
     name rwrist
     direction -1 -4.48961e-011 -1.67336e-026   
     length 1.66387   
     axis 9.90442e-015 -90 -90   XYZ
    dof ry
    limits (-180.0 0.0)
  end
  begin
     id 28
     name rhand
     direction -1 -4.4897e-011 -3.34673e-026   
     length 0.507628   
     axis 2.1355e-014 -90 -90   XYZ
    dof rx rz
    limits (-90.0 90.0)
           (-45.0 45.0)
  end
  begin
     id 29
     name rfingers
     direction -1 -4.48854e-011 -6.69345e-026   
     length 0.409263   
     axis 4.27099e-014 -90 -90   XYZ
    dof rx
    limits (0.0 90.0)
  end
  begin
     id 30
     name rthumb
     direction -0.707107 -6.34913e-011 0.707107   
     length 0.587622   
     axis -90 -45 -2.85299e-015   XYZ
    dof rx rz
    limits (-45.0 45.0)
           (-45.0 45.0)
  end
:hierarchy
  begin
    root lhipjoint rhipjoint lowerback
    lhipjoint lfemur
    lfemur ltibia
    ltibia lfoot
    lfoot ltoes
    rhipjoint rfemur
    rfemur rtibia
    rtibia rfoot
    rfoot rtoes
    lowerback upperback
    upperback thorax
    thorax lowerneck lclavicle rclavicle
    lowerneck upperneck
    upperneck head
    lclavicle lhumerus
    lhumerus lradius
    lradius lwrist
    lwrist lhand lthumb
    lhand lfingers
    rclavicle rhumerus
    rhumerus rradius
    rradius rwrist
    rwrist rhand rthumb
    rhand rfingers
  end

#!OML:ASF E:\motion texture\Top Level 1\Subject 1\Session 1\male.ASF
:FULLY-SPECIFIED
:DEGREES
48
root 45.9095 17.545 5.43127 60.1203 -83.0201 -50.9546
lowerback -1.95098 -0.592507 1.61183
upperback -0.842639 -0.835599 1.11426
thorax 0.22429 -0.424767 0.219731
lowerneck -20.7939 -2.74788 -5.63721
upperneck 14.7058 -3.26489 6.04647
head 8.16385 -1.24953 2.5302
rclavicle 1.2424e-014 3.49861e-014
rhumerus -32.2341 -26.6907 -74.3038
rradius 21.0704
rwrist 26.1097
rhand -12.616 -24.6212
rfingers 7.12502
rthumb 13.4634 -54.166
lclavicle 1.2424e-014 3.49861e-014
lhumerus -32.2958 31.3744 74.1404
lradius 21.1692
lwrist -38.6039
lhand -12.5602 21.0623
lfingers 7.12502
lthumb 13.5171 50.6036
rfemur -15.8231 -1.47654 26.9957
rtibia 25.8718
rfoot -17.8301 -12.55
rtoes 13.401
lfemur -16.0201 -1.59094 -12.4865
ltibia 25.8975
lfoot -15.5367 -1.42836
ltoes -9.96775
49
root 45.8715 17.5375 5.40865 61.0699 -82.8541 -51.9262
lowerback -1.91371 -0.562424 1.78402
upperback -0.804758 -0.798905 1.15903
thorax 0.240744 -0.406624 0.170087
lowerneck -20.8349 -2.73104 -5.62795
upperneck 14.6694 -3.2417 6.05176
head 8.15708 -1.23684 2.53316
rclavicle 8.89561e-015 2.3059e-014
rhumerus -32.2113 -26.8908 -74.2792
rradius 20.8446
rwrist 26.4391
rhand -12.5908 -24.6035
rfingers 7.12502
rthumb 13.4876 -54.1467
lclavicle 8.89561e-015 2.3059e-014
lhumerus -32.2403 31.2877 74.2139
lradius 21.2387
lwrist -38.5041
lhand -12.5889 21.0721
lfingers 7.12502
lthumb 13.4895 50.6152
rfemur -15.5625 -1.37237 27.3331
rtibia 25.6765
rfoot -17.8745 -12.4979
rtoes 13.7419
lfemur -16.6209 -1.36623 -12.1916
ltibia 27.1396
lfoot -15.4121 -1.42195
ltoes -10.0197
50
root 45.8334 17.5299 5.38599 62.0208 -82.686 -52.9029
lowerback -1.86849 -0.531183 1.96154
upperback -0.762965 -0.760596 1.20516
thorax 0.256883 -0.38762 0.118947
lowerneck -20.8768 -2.71366 -5.61886
upperneck 14.6276 -3.21768 6.05836
head 8.14861 -1.22362 2.53665
rclavicle 2.38542e-015 2.82274e-014
rhumerus -32.1683 -27.0688 -74.2743
rradius 20.632
rwrist 26.75
rhand -12.5761 -24.5846
rfingers 7.12502
rthumb 13.5017 -54.1269
lclavicle 2.38542e-015 2.82274e-014
lhumerus -32.1746 31.1851 74.3007
lradius 21.3156
lwrist -38.3913
lhand -12.6211 21.0782
lfingers 7.12502
lthumb 13.4584 50.6234
rfemur -15.2974 -1.26533 27.6757
rtibia 25.48
rfoot -17.919 -12.4491
rtoes 14.0881
lfemur -17.2622 -1.13387 -11.8948
ltibia 28.4383
lfoot -15.2674 -1.41158
ltoes -10.106
51
root 45.7951 17.5222 5.36333 62.9594 -82.5149 -53.8706
lowerback -1.81707 -0.499561 2.14402
upperback -0.716848 -0.721733 1.25273
thorax 0.274112 -0.368268 0.0665505
lowerneck -20.916 -2.69666 -5.60857
upperneck 14.5765 -3.19368 6.06207
head 8.13649 -1.21072 2.5389
rclavicle 1.63997e-015 -2.62396e-014
rhumerus -32.1047 -27.2232 -74.29
rradius 20.4328
rwrist 27.0439
rhand -12.5705 -24.571
rfingers 7.12502
rthumb 13.5072 -54.1129
lclavicle 1.63997e-015 -2.62396e-014
lhumerus -32.0985 31.0662 74.4003
lradius 21.4001
lwrist -38.2661
lhand -12.6536 21.0867
lfingers 7.12502
lthumb 13.4271 50.6339
rfemur -15.0259 -1.15666 28.0231
rtibia 25.2798
rfoot -17.9634 -12.4046
rtoes 14.4425
lfemur -17.9434 -0.895536 -11.5966
ltibia 29.7891
lfoot -15.103 -1.39624
ltoes -10.2312
52
root 45.7565 17.5145 5.34078 63.8996 -82.3449 -54.8425
lowerback -1.76 -0.466301 2.32948
upperback -0.666875 -0.68058 1.30068
thorax 0.292312 -0.347689 0.0129432
lowerneck -20.9566 -2.67972 -5.59936
upperneck 14.5219 -3.16957 6.06755
head 8.12345 -1.19763 2.5419
rclavicle 1.3418e-015 -5.96354e-015
rhumerus -32.0202 -27.3518 -74.3276
rradius 20.2474
rwrist 27.318
rhand -12.5762 -24.5584
rfingers 7.12502
rthumb 13.5017 -54.1007
lclavicle 1.3418e-015 -5.96354e-015
lhumerus -32.0132 30.932 74.512
lradius 21.4919
lwrist -38.1276
lhand -12.69 21.0907
lfingers 7.12502
lthumb 13.392 50.6403
rfemur -14.7502 -1.04474 28.3721
rtibia 25.0783
rfoot -18.008 -12.3633
rtoes 14.7994
lfemur -18.6636 -0.651021 -11.3002
ltibia 31.1857
lfoot -14.9173 -1.37438
ltoes -10.3759
53
root 45.7176 17.5068 5.31835 64.8322 -82.1759 -55.8083
lowerback -1.69879 -0.431363 2.51623
upperback -0.613673 -0.637077 1.34892
thorax 0.311738 -0.325848 -0.0410352
lowerneck -20.9986 -2.66329 -5.59494
upperneck 14.466 -3.14614 6.08055
head 8.11049 -1.18437 2.54814
rclavicle -9.44227e-016 0
rhumerus -31.9157 -27.4527 -74.3875
rradius 20.0774
rwrist 27.5682
rhand -12.5935 -24.5479
rfingers 7.12502
rthumb 13.485 -54.0913
lclavicle -9.44227e-016 0
lhumerus -31.9201 30.7847 74.6345
lradius 21.5906
lwrist -37.9808
lhand -12.7306 21.0953
lfingers 7.12502
lthumb 13.3529 50.6475
rfemur -14.4706 -0.930053 28.7214
rtibia 24.8745
rfoot -18.0536 -12.3262
rtoes 15.1586
lfemur -19.42 -0.39996 -11.0074
ltibia 32.6183
lfoot -14.7134 -1.34249
ltoes -10.5701
54
root 45.6783 17.4993 5.29607 65.7458 -82.0091 -56.7568
lowerback -1.63395 -0.395814 2.70343
upperback -0.557255 -0.592628 1.39666
thorax 0.332642 -0.303431 -0.0957498
lowerneck -21.0405 -2.64672 -5.59274
upperneck 14.4074 -3.12239 6.09674
head 8.09668 -1.17078 2.55584
rclavicle -1.25234e-014 2.46493e-014
rhumerus -31.7909 -27.5279 -74.4694
rradius 19.9207
rwrist 27.7997
rhand -12.62 -24.5337
rfingers 7.12502
rthumb 13.4595 -54.0788
lclavicle -1.25234e-014 2.46493e-014
lhumerus -31.8205 30.6237 74.7661
lradius 21.6964
lwrist -37.8219
lhand -12.7745 21.1029
lfingers 7.12502
lthumb 13.3105 50.6578
rfemur -14.1858 -0.813797 29.0688
rtibia 24.6673
rfoot -18.1008 -12.2938
rtoes 15.5175
lfemur -20.2103 -0.144736 -10.7203
ltibia 34.0798
lfoot -14.4918 -1.29927
ltoes -10.7865
55
root 45.6385 17.492 5.27402 66.6497 -81.845 -57.6965
lowerback -1.56484 -0.358801 2.89077
upperback -0.498556 -0.546029 1.44378
thorax 0.353762 -0.279852 -0.151145
lowerneck -21.0813 -2.62916 -5.59126
upperneck 14.3473 -3.09759 6.1154
head 8.08214 -1.15651 2.56462
rclavicle -9.44227e-016 -2.18663e-014
rhumerus -31.6476 -27.5729 -74.5745
rradius 19.7795
rwrist 28.0069
rhand -12.6565 -24.5214
rfingers 7.12502
rthumb 13.4243 -54.0688
lclavicle -9.44227e-016 -2.18663e-014
lhumerus -31.7161 30.4521 74.905
lradius 21.8085
lwrist -37.6539
lhand -12.8201 21.1089
lfingers 7.12502
lthumb 13.2666 50.6667
rfemur -13.8954 -0.694663 29.4139
rtibia 24.4549
rfoot -18.1485 -12.2656
rtoes 15.8778
lfemur -21.0319 0.114338 -10.4387
ltibia 35.5605
lfoot -14.2545 -1.24258
ltoes -11.0279
56
root 45.5984 17.4849 5.25227 67.5424 -81.6844 -58.6245
lowerback -1.49248 -0.320856 3.07862
upperback -0.438773 -0.497984 1.48958
thorax 0.374428 -0.255477 -0.208135
lowerneck -21.121 -2.61308 -5.59383
upperneck 14.2846 -3.0743 6.13799
head 8.06683 -1.14282 2.57518
rclavicle 1.19271e-015 3.57812e-015
rhumerus -31.4852 -27.5795 -74.7074
rradius 19.6576
rwrist 28.1768
rhand -12.6981 -24.524
rfingers 7.12502
rthumb 13.3842 -54.0741
lclavicle 1.19271e-015 3.57812e-015
lhumerus -31.6094 30.2678 75.0497
lradius 21.9277
lwrist -37.4739
lhand -12.8676 21.1122
lfingers 7.12502
lthumb 13.2208 50.673
rfemur -13.6031 -0.572604 29.7549
rtibia 24.2406
rfoot -18.1981 -12.2421
rtoes 16.2323
lfemur -21.884 0.375214 -10.1645
ltibia 37.0513
lfoot -14.0033 -1.17112
ltoes -11.2901
57
root 45.5577 17.4781 5.23084 68.4111 -81.5284 -59.5271
lowerback -1.41745 -0.281821 3.26376
upperback -0.378299 -0.448216 1.53372
thorax 0.394608 -0.230165 -0.265303
lowerneck -21.1584 -2.59706 -5.59852
upperneck 14.2203 -3.05123 6.16409
head 8.05065 -1.12906 2.58722
rclavicle -4.22417e-015 6.36111e-015
rhumerus -31.3065 -27.5568 -74.8616
rradius 19.5505
rwrist 28.3214
rhand -12.7485 -24.5281
rfingers 7.12502
rthumb 13.3357 -54.0814
lclavicle -4.22417e-015 6.36111e-015
lhumerus -31.501 30.0769 75.1983
lradius 22.0518
lwrist -37.289
lhand -12.9186 21.1116
lfingers 7.12502
lthumb 13.1716 50.6755
rfemur -13.3076 -0.448591 30.0894
rtibia 24.0214
rfoot -18.2487 -12.2242
rtoes 16.5853
lfemur -22.7635 0.636312 -9.89981
ltibia 38.5421
lfoot -13.7407 -1.08337
ltoes -11.5756
